<svg width="1600" height="900" viewBox="0 0 1600 900" fill="none" xmlns="http://www.w3.org/2000/svg">
  <rect width="1600" height="900" rx="64" fill="#FFF4E8"/>
  <circle cx="268" cy="218" r="144" fill="#FFD15A" fill-opacity="0.82"/>
  <circle cx="1340" cy="180" r="116" fill="#5ECCFF" fill-opacity="0.72"/>
  <rect x="168" y="180" width="1264" height="560" rx="44" fill="#FFFFFF" fill-opacity="0.68" stroke="#E7D2FF" stroke-width="10"/>
  <rect x="242" y="258" width="360" height="340" rx="32" fill="#FFE0B9"/>
  <rect x="660" y="258" width="296" height="70" rx="24" fill="#FFB7B0"/>
  <rect x="660" y="356" width="492" height="28" rx="14" fill="#D4C0FF"/>
  <rect x="660" y="408" width="562" height="28" rx="14" fill="#D4C0FF"/>
  <rect x="660" y="460" width="440" height="28" rx="14" fill="#D4C0FF"/>
  <rect x="660" y="528" width="640" height="120" rx="32" fill="#CFF3FF"/>
  <rect x="280" y="312" width="284" height="40" rx="20" fill="#FF7F73"/>
  <rect x="280" y="378" width="220" height="220" rx="28" fill="#FFF4E8"/>
  <text x="660" y="320" fill="#3B234D" font-size="54" font-family="Trebuchet MS, Segoe UI, sans-serif" font-weight="700">Sequence Before Speed</text>
  <text x="660" y="590" fill="#3B234D" font-size="30" font-family="Trebuchet MS, Segoe UI, sans-serif">A page feels fast when the reader can tell where they are and what comes next.</text>
</svg>
